<svg xmlns="http://www.w3.org/2000/svg" id="Layer_2" viewBox="0 0 1682.5 840.57"><defs><style>.cls-1,.cls-2,.cls-3{font-family:CircularStd-Medium,&apos;Circular Std&apos;}.cls-1,.cls-3{font-size:24px}.cls-4{letter-spacing:0}.cls-5,.cls-6{letter-spacing:-.01em}.cls-7{fill:none;stroke:#000}.cls-10,.cls-7,.cls-8,.cls-9{stroke-miterlimit:10;stroke-width:1.5px}.cls-2{font-size:20.68px}.cls-11,.cls-12{letter-spacing:-.02em}.cls-13{letter-spacing:0}.cls-14{fill:#f5f7fd}.cls-15{fill:#dfe7fb}.cls-16{letter-spacing:-.07em}.cls-17{letter-spacing:-.01em}.cls-18{letter-spacing:-.02em}.cls-19,.cls-20{letter-spacing:-.01em}.cls-21{letter-spacing:0}.cls-22,.cls-23{letter-spacing:-.03em}.cls-24,.cls-25,.cls-26,.cls-27{letter-spacing:0}.cls-28{letter-spacing:-.01em}.cls-29{letter-spacing:-.02em}.cls-8{fill:#fd9b9d;stroke:#ec3431}.cls-9{fill:#f2d051;stroke:#dcb74a}.cls-30{letter-spacing:0}.cls-10{fill:#375bd2;stroke:#0043c3}.cls-31{letter-spacing:0}.cls-32{letter-spacing:-.01em}.cls-33{letter-spacing:-.08em}.cls-3{fill:#fff}.cls-34{letter-spacing:-.01em}.cls-35{letter-spacing:-.02em}.cls-36{letter-spacing:0}.cls-37{letter-spacing:-.01em}.cls-38{letter-spacing:-.03em}.cls-39{font-family:CircularStd-Bold,&apos;Circular Std&apos;;font-size:46px}</style></defs><g id="Layer_1-2"><g><rect width="870" height="676" x=".5" y=".5" class="cls-14"/><path d="M870,1V676H1V1H870m1-1H0V677H871V0h0Z" class="cls-15"/></g><text class="cls-39" transform="translate(61 86.33)"><tspan x="0" y="0">L1</tspan></text><g><circle cx="1554.62" cy="740.92" r="15.62" class="cls-8"/><text class="cls-2" transform="translate(1582.97 747.36)"><tspan x="0" y="0">O</tspan><tspan x="16.65" y="0" class="cls-4">p</tspan><tspan x="29.08" y="0" class="cls-13">t</tspan><tspan x="36.67" y="0">imism</tspan></text></g><g><circle cx="1554.62" cy="782.56" r="15.62" class="cls-10"/><text class="cls-2" transform="translate(1582.97 788.99)"><tspan x="0" y="0" class="cls-6">C</tspan><tspan x="15.47" y="0" class="cls-30">hainlink</tspan></text></g><g><circle cx="1554.62" cy="824.2" r="15.62" class="cls-9"/><text class="cls-2" transform="translate(1582.97 830.63)"><tspan x="0" y="0" class="cls-18">C</tspan><tspan x="15.3" y="0">on</tspan><tspan x="39.15" y="0" class="cls-36">s</tspan><tspan x="48.5" y="0">umer</tspan></text></g><g><rect width="350" height="88" x="63.38" y="134.5" class="cls-8"/><text class="cls-1" transform="translate(95.22 185.04)"><tspan x="0" y="0" class="cls-5">L1</tspan><tspan x="21.86" y="0" class="cls-29">C</tspan><tspan x="39.53" y="0" class="cls-37">r</tspan><tspan x="48.34" y="0" class="cls-31">oss</tspan><tspan x="83.45" y="0" class="cls-26">D</tspan><tspan x="100.58" y="0" class="cls-5">omain</tspan><tspan x="167.13" y="0" class="cls-19">M</tspan><tspan x="189.65" y="0" class="cls-5">es</tspan><tspan x="213.29" y="0" class="cls-37">s</tspan><tspan x="223.94" y="0" class="cls-5">enger</tspan></text></g><g><rect width="477.5" height="676" x="1204.5" y=".5" class="cls-14"/><path d="M1681.5,1V676h-476.5V1h476.5m1-1h-478.5V677h478.5V0h0Z" class="cls-15"/></g><text class="cls-39" transform="translate(1265 86.33)"><tspan x="0" y="0">L2</tspan></text><g><rect width="350" height="88" x="1268.22" y="134.5" class="cls-8"/><text class="cls-1" transform="translate(1298.13 185.04)"><tspan x="0" y="0" class="cls-5">L2</tspan><tspan x="25.73" y="0" class="cls-29">C</tspan><tspan x="43.39" y="0" class="cls-34">r</tspan><tspan x="52.2" y="0" class="cls-5">oss</tspan><tspan x="87.31" y="0" class="cls-26">D</tspan><tspan x="104.45" y="0" class="cls-5">omain</tspan><tspan x="171" y="0" class="cls-19">M</tspan><tspan x="193.51" y="0" class="cls-31">es</tspan><tspan x="217.15" y="0" class="cls-37">s</tspan><tspan x="227.8" y="0" class="cls-5">enger</tspan></text></g><g><rect width="350" height="88" x="63.5" y="265.5" class="cls-10"/><text class="cls-3" transform="translate(136.79 316.04)"><tspan x="0" y="0" class="cls-5">O</tspan><tspan x="19.08" y="0" class="cls-34">p</tspan><tspan x="33.26" y="0" class="cls-26">t</tspan><tspan x="41.83" y="0" class="cls-31">imism</tspan><tspan x="106.22" y="0" class="cls-16">V</tspan><tspan x="120.77" y="0" class="cls-5">ali</tspan><tspan x="145.56" y="0" class="cls-19">da</tspan><tspan x="172.2" y="0" class="cls-34">t</tspan><tspan x="180.65" y="0" class="cls-5">or</tspan></text></g><rect width="350" height="88" x="455.5" y="134.5" class="cls-8"/><text class="cls-1" transform="translate(481.82 185.04)"><tspan x="0" y="0" class="cls-38">C</tspan><tspan x="17.54" y="0" class="cls-5">anoni</tspan><tspan x="76.92" y="0" class="cls-34">c</tspan><tspan x="89.59" y="0" class="cls-5">al</tspan><tspan x="108.26" y="0" class="cls-33">T</tspan><tspan x="120.98" y="0" class="cls-27">r</tspan><tspan x="129.93" y="0" class="cls-5">an</tspan><tspan x="156" y="0" class="cls-35">s</tspan><tspan x="166.56" y="0" class="cls-28">a</tspan><tspan x="179.06" y="0" class="cls-31">c</tspan><tspan x="191.81" y="0" class="cls-25">t</tspan><tspan x="200.37" y="0" class="cls-31">ion</tspan><tspan x="233.69" y="0" class="cls-12">C</tspan><tspan x="251.4" y="0" class="cls-5">hain</tspan></text><rect width="200" height="88" x="936.5" y="134.5" class="cls-8"/><text class="cls-1" transform="translate(978.71 185.04)"><tspan x="0" y="0" class="cls-35">S</tspan><tspan x="13.97" y="0" class="cls-5">eq</tspan><tspan x="40.94" y="0" class="cls-37">u</tspan><tspan x="54.48" y="0" class="cls-5">en</tspan><tspan x="80.93" y="0" class="cls-17">c</tspan><tspan x="93.55" y="0" class="cls-5">er</tspan></text><g><line x1="413.25" x2="444.49" y1="178.83" y2="178.83" class="cls-7"/><polygon points="442.3 186.31 455.25 178.83 442.3 171.35 442.3 186.31"/></g><g><line x1="806" x2="924.24" y1="179" y2="179" class="cls-7"/><polygon points="922.05 186.48 935 179 922.05 171.52 922.05 186.48"/></g><g><line x1="1136" x2="1254.24" y1="179" y2="179" class="cls-7"/><polygon points="1252.05 186.48 1265 179 1252.05 171.52 1252.05 186.48"/></g><g><line x1="238.38" x2="238.38" y1="264.83" y2="233.6" class="cls-7"/><polygon points="245.85 235.79 238.38 222.83 230.9 235.79 245.85 235.79"/></g><g><rect width="350" height="88" x="63.5" y="396.5" class="cls-10"/><text class="cls-3" transform="translate(159.43 447.04)"><tspan x="0" y="0" class="cls-16">V</tspan><tspan x="14.54" y="0" class="cls-5">ali</tspan><tspan x="39.34" y="0" class="cls-20">da</tspan><tspan x="65.98" y="0" class="cls-37">t</tspan><tspan x="74.42" y="0" class="cls-5">or</tspan><tspan x="96.96" y="0" class="cls-11">P</tspan><tspan x="110.85" y="0" class="cls-34">r</tspan><tspan x="119.66" y="0" class="cls-22">o</tspan><tspan x="132.96" y="0" class="cls-27">x</tspan><tspan x="145.1" y="0" class="cls-5">y</tspan></text></g><g><line x1="238.38" x2="238.38" y1="395.83" y2="364.6" class="cls-7"/><polygon points="245.85 366.79 238.38 353.83 230.9 366.79 245.85 366.79"/></g><g><rect width="350" height="88" x="63.5" y="527.5" class="cls-10"/><text class="cls-3" transform="translate(176.71 578.04)"><tspan x="0" y="0" class="cls-12">A</tspan><tspan x="16.58" y="0" class="cls-31">gg</tspan><tspan x="44.38" y="0" class="cls-34">r</tspan><tspan x="53.18" y="0" class="cls-5">e</tspan><tspan x="66.1" y="0" class="cls-32">g</tspan><tspan x="79.87" y="0" class="cls-19">a</tspan><tspan x="92.35" y="0" class="cls-34">t</tspan><tspan x="100.8" y="0" class="cls-5">or</tspan></text></g><g><rect width="350" height="88" x="64" y="732" class="cls-10"/><text class="cls-3" transform="translate(147.95 782.54)"><tspan x="0" y="0" class="cls-5">E</tspan><tspan x="13.73" y="0" class="cls-21">x</tspan><tspan x="25.97" y="0" class="cls-34">t</tspan><tspan x="34.42" y="0" class="cls-5">e</tspan><tspan x="47.33" y="0" class="cls-26">r</tspan><tspan x="56.25" y="0" class="cls-5">nal </tspan><tspan x="94.17" y="0" class="cls-12">A</tspan><tspan x="110.76" y="0" class="cls-19">d</tspan><tspan x="124.92" y="0" class="cls-5">a</tspan><tspan x="137.45" y="0" class="cls-34">pt</tspan><tspan x="160.08" y="0" class="cls-31">er</tspan></text></g><g><line x1="238.38" x2="238.38" y1="526.83" y2="495.6" class="cls-7"/><polygon points="245.85 497.79 238.38 484.83 230.9 497.79 245.85 497.79"/></g><g><line x1="238" x2="238" y1="733" y2="627.76" class="cls-7"/><polygon points="245.48 629.95 238 617 230.52 629.95 245.48 629.95"/></g><g><rect width="350" height="88" x="1268.22" y="265.5" class="cls-10"/><text class="cls-3" transform="translate(1341.51 316.04)"><tspan x="0" y="0" class="cls-5">O</tspan><tspan x="19.08" y="0" class="cls-34">p</tspan><tspan x="33.26" y="0" class="cls-26">t</tspan><tspan x="41.83" y="0" class="cls-31">imism</tspan><tspan x="106.22" y="0" class="cls-16">V</tspan><tspan x="120.77" y="0" class="cls-5">ali</tspan><tspan x="145.56" y="0" class="cls-19">da</tspan><tspan x="172.2" y="0" class="cls-34">t</tspan><tspan x="180.65" y="0" class="cls-5">or</tspan></text></g><g><line x1="1443.38" x2="1443.38" y1="222.83" y2="254.07" class="cls-7"/><polygon points="1435.9 251.88 1443.38 264.83 1450.85 251.88 1435.9 251.88"/></g><g><rect width="350" height="88" x="1268.22" y="396.5" class="cls-10"/><text class="cls-3" transform="translate(1350.96 447.04)"><tspan x="0" y="0" class="cls-12">A</tspan><tspan x="16.58" y="0" class="cls-31">gg</tspan><tspan x="44.38" y="0" class="cls-34">r</tspan><tspan x="53.18" y="0" class="cls-5">e</tspan><tspan x="66.1" y="0" class="cls-32">g</tspan><tspan x="79.87" y="0" class="cls-19">a</tspan><tspan x="92.35" y="0" class="cls-34">t</tspan><tspan x="100.8" y="0" class="cls-5">or</tspan><tspan x="123.33" y="0" class="cls-11">P</tspan><tspan x="137.23" y="0" class="cls-34">r</tspan><tspan x="146.04" y="0" class="cls-22">o</tspan><tspan x="159.33" y="0" class="cls-24">x</tspan><tspan x="171.48" y="0" class="cls-31">y</tspan></text></g><g><line x1="1443.38" x2="1443.38" y1="395.83" y2="364.6" class="cls-7"/><polygon points="1450.85 366.79 1443.38 353.83 1435.9 366.79 1450.85 366.79"/></g><g><rect width="350" height="88" x="1268.22" y="527.5" class="cls-9"/><text class="cls-1" transform="translate(1387.38 578.04)"><tspan x="0" y="0" class="cls-23">C</tspan><tspan x="17.52" y="0" class="cls-5">on</tspan><tspan x="44.71" y="0" class="cls-32">s</tspan><tspan x="55.32" y="0" class="cls-5">umer</tspan></text></g><g><line x1="1443.38" x2="1443.38" y1="526.83" y2="495.6" class="cls-7"/><polygon points="1450.85 497.79 1443.38 484.83 1435.9 497.79 1450.85 497.79"/></g></g></svg>