<svg xmlns="http://www.w3.org/2000/svg" id="Layer_2" viewBox="0 0 903 293.44"><defs><style>.cls-1,.cls-2{font-family:CircularStd-Medium,&apos;Circular Std&apos;;font-size:24px}.cls-3{letter-spacing:-.01em}.cls-4{letter-spacing:0}.cls-5{fill:#f5f7fd}.cls-2,.cls-6{fill:#fff}.cls-7{fill:#dfe7fb}.cls-8{fill:#0c162c}.cls-9{letter-spacing:-.01em}.cls-10{letter-spacing:0}.cls-11{font-family:CircularStd-Bold,&apos;Circular Std&apos;;font-size:32px}.cls-12,.cls-13,.cls-14{letter-spacing:0}.cls-15{letter-spacing:-.01em}.cls-16,.cls-17{fill:#f2d051;stroke:#dcb74a;stroke-miterlimit:10;stroke-width:1.5px}.cls-17{fill:#375bd2;stroke:#0043c3}.cls-18,.cls-19{letter-spacing:0}.cls-20{letter-spacing:-.08em}.cls-21{letter-spacing:-.02em}</style></defs><g id="Layer_1-2"><g><text class="cls-11" transform="translate(0 27.34)"><tspan x="0" y="0" class="cls-9">P</tspan><tspan x="19.01" y="0" class="cls-12">r</tspan><tspan x="31.46" y="0">o</tspan><tspan x="50.14" y="0" class="cls-18">c</tspan><tspan x="67.58" y="0">es</tspan><tspan x="100.03" y="0" class="cls-12">s</tspan><tspan x="114.72" y="0">ed </tspan><tspan x="159.93" y="0" class="cls-4">Q</tspan><tspan x="185.66" y="0" class="cls-12">u</tspan><tspan x="204.35" y="0" class="cls-10">e</tspan><tspan x="221.85" y="0" class="cls-12">u</tspan><tspan x="240.54" y="0">e</tspan></text><g><g><rect width="902" height="239" x=".5" y="53.94" class="cls-5"/><path d="M902,54.44v238H1V54.44H902m1-1H0v240H903V53.44h0Z" class="cls-7"/></g><g><g><rect width="199" height="199" x="22.8" y="73.94" class="cls-6"/><path d="M221.3,74.44v198H23.3V74.44H221.3m1-1H22.3v200H222.3V73.44h0Z" class="cls-8"/></g><text class="cls-1" transform="translate(52.34 180.84)"><tspan x="0" y="0" class="cls-20">T</tspan><tspan x="12.72" y="0" class="cls-14">r</tspan><tspan x="21.67" y="0" class="cls-3">an</tspan><tspan x="47.74" y="0" class="cls-21">s</tspan><tspan x="58.3" y="0" class="cls-15">a</tspan><tspan x="70.8" y="0" class="cls-19">c</tspan><tspan x="83.54" y="0" class="cls-13">t</tspan><tspan x="92.11" y="0" class="cls-19">ion 1</tspan></text><g><rect width="199" height="199" x="242.27" y="73.92" class="cls-6"/><path d="M440.77,74.42v198H242.77V74.42h198m1-1H241.77v200h200V73.42h0Z" class="cls-8"/></g><text class="cls-1" transform="translate(269.81 180.82)"><tspan x="0" y="0" class="cls-20">T</tspan><tspan x="12.72" y="0" class="cls-14">r</tspan><tspan x="21.67" y="0" class="cls-3">an</tspan><tspan x="47.74" y="0" class="cls-21">s</tspan><tspan x="58.3" y="0" class="cls-15">a</tspan><tspan x="70.8" y="0" class="cls-19">c</tspan><tspan x="83.54" y="0" class="cls-13">t</tspan><tspan x="92.11" y="0" class="cls-19">ion 2</tspan></text><rect width="200" height="200" x="461.23" y="73.44" class="cls-17"/><text class="cls-2" transform="translate(489.24 180.84)"><tspan x="0" y="0" class="cls-20">T</tspan><tspan x="12.72" y="0" class="cls-14">r</tspan><tspan x="21.67" y="0" class="cls-3">an</tspan><tspan x="47.74" y="0" class="cls-21">s</tspan><tspan x="58.3" y="0" class="cls-15">a</tspan><tspan x="70.8" y="0" class="cls-3">c</tspan><tspan x="83.54" y="0" class="cls-13">t</tspan><tspan x="92.11" y="0" class="cls-19">ion 3</tspan></text><rect width="200" height="200" x="680.7" y="73.42" class="cls-16"/><text class="cls-1" transform="translate(708.21 180.82)"><tspan x="0" y="0" class="cls-20">T</tspan><tspan x="12.72" y="0" class="cls-14">r</tspan><tspan x="21.67" y="0" class="cls-3">an</tspan><tspan x="47.74" y="0" class="cls-21">s</tspan><tspan x="58.3" y="0" class="cls-15">a</tspan><tspan x="70.8" y="0" class="cls-3">c</tspan><tspan x="83.54" y="0" class="cls-13">t</tspan><tspan x="92.11" y="0" class="cls-19">ion 4</tspan></text></g></g></g></g></svg>