<svg xmlns="http://www.w3.org/2000/svg" id="Layer_2" viewBox="0 0 871 636.44"><defs><style>.cls-1,.cls-2{font-family:CircularStd-Medium,&apos;Circular Std&apos;;font-size:24px}.cls-3{letter-spacing:-.01em}.cls-4{letter-spacing:0}.cls-5{fill:#f5f7fd}.cls-2,.cls-6{fill:#fff}.cls-7{fill:#dfe7fb}.cls-8{fill:#0c162c}.cls-9{letter-spacing:-.03em}.cls-10{letter-spacing:-.01em}.cls-11{letter-spacing:0}.cls-12{font-family:CircularStd-Bold,&apos;Circular Std&apos;;font-size:32px}.cls-13,.cls-14,.cls-15{letter-spacing:0}.cls-16{letter-spacing:-.01em}.cls-17,.cls-18{fill:#f2d051;stroke:#dcb74a;stroke-miterlimit:10;stroke-width:1.5px}.cls-18{fill:#375bd2;stroke:#0043c3}.cls-19,.cls-20{letter-spacing:0}.cls-21{letter-spacing:-.08em}.cls-22{letter-spacing:-.02em}</style></defs><g id="Layer_1-2"><g><g><rect width="870" height="239" x=".5" y="53.94" class="cls-5"/><path d="M870,54.44v238H1V54.44H870m1-1H0v240H871V53.44h0Z" class="cls-7"/></g><g><rect width="199" height="199" x="22.09" y="73.94" class="cls-6"/><path d="M220.59,74.44v198H22.59V74.44H220.59m1-1H21.59v200H221.59V73.44h0Z" class="cls-8"/></g><text class="cls-12" transform="translate(0 27.34)"><tspan x="0" y="0" class="cls-10">P</tspan><tspan x="19.01" y="0" class="cls-13">r</tspan><tspan x="31.46" y="0">o</tspan><tspan x="50.14" y="0" class="cls-19">c</tspan><tspan x="67.58" y="0">es</tspan><tspan x="100.03" y="0" class="cls-13">s</tspan><tspan x="114.72" y="0">ed </tspan><tspan x="159.93" y="0" class="cls-4">Q</tspan><tspan x="185.66" y="0" class="cls-13">u</tspan><tspan x="204.35" y="0" class="cls-11">e</tspan><tspan x="221.85" y="0" class="cls-13">u</tspan><tspan x="240.54" y="0">e</tspan></text><text class="cls-1" transform="translate(51.63 180.84)"><tspan x="0" y="0" class="cls-21">T</tspan><tspan x="12.72" y="0" class="cls-15">r</tspan><tspan x="21.67" y="0" class="cls-3">an</tspan><tspan x="47.74" y="0" class="cls-22">s</tspan><tspan x="58.3" y="0" class="cls-16">a</tspan><tspan x="70.8" y="0" class="cls-20">c</tspan><tspan x="83.54" y="0" class="cls-14">t</tspan><tspan x="92.11" y="0" class="cls-20">ion 1</tspan></text><g><rect width="199" height="199" x="241.5" y="73.92" class="cls-6"/><path d="M440,74.42v198H242V74.42h198m1-1H241v200h200V73.42h0Z" class="cls-8"/></g><text class="cls-1" transform="translate(269.11 180.82)"><tspan x="0" y="0" class="cls-21">T</tspan><tspan x="12.72" y="0" class="cls-15">r</tspan><tspan x="21.67" y="0" class="cls-3">an</tspan><tspan x="47.74" y="0" class="cls-22">s</tspan><tspan x="58.3" y="0" class="cls-16">a</tspan><tspan x="70.8" y="0" class="cls-20">c</tspan><tspan x="83.54" y="0" class="cls-14">t</tspan><tspan x="92.11" y="0" class="cls-20">ion 2</tspan></text><g><rect width="870" height="239" x=".5" y="396.94" class="cls-5"/><path d="M870,397.44v238H1v-238H870m1-1H0v240H871v-240h0Z" class="cls-7"/></g><rect width="200" height="200" x="21.59" y="416.44" class="cls-18"/><text class="cls-12" transform="translate(0 370.34)"><tspan x="0" y="0" class="cls-9">P</tspan><tspan x="18.4" y="0">ending </tspan><tspan x="128.89" y="0" class="cls-4">Q</tspan><tspan x="154.62" y="0" class="cls-13">u</tspan><tspan x="173.31" y="0" class="cls-11">e</tspan><tspan x="190.81" y="0" class="cls-13">u</tspan><tspan x="209.5" y="0">e</tspan></text><text class="cls-2" transform="translate(49.53 523.84)"><tspan x="0" y="0" class="cls-21">T</tspan><tspan x="12.72" y="0" class="cls-15">r</tspan><tspan x="21.67" y="0" class="cls-3">an</tspan><tspan x="47.74" y="0" class="cls-22">s</tspan><tspan x="58.3" y="0" class="cls-16">a</tspan><tspan x="70.8" y="0" class="cls-3">c</tspan><tspan x="83.54" y="0" class="cls-14">t</tspan><tspan x="92.11" y="0" class="cls-20">ion 3</tspan></text><rect width="200" height="200" x="241" y="416.42" class="cls-17"/><text class="cls-1" transform="translate(268.51 523.82)"><tspan x="0" y="0" class="cls-21">T</tspan><tspan x="12.72" y="0" class="cls-15">r</tspan><tspan x="21.67" y="0" class="cls-3">an</tspan><tspan x="47.74" y="0" class="cls-22">s</tspan><tspan x="58.3" y="0" class="cls-16">a</tspan><tspan x="70.8" y="0" class="cls-3">c</tspan><tspan x="83.54" y="0" class="cls-14">t</tspan><tspan x="92.11" y="0" class="cls-20">ion 4</tspan></text></g></g></svg>