<svg xmlns="http://www.w3.org/2000/svg" width="24" height="24" fill="none" viewBox="0 0 24 24"><path fill="#627EEA" d="M12 24C18.6274 24 24 18.6274 24 12C24 5.37258 18.6274 0 12 0C5.37258 0 0 5.37258 0 12C0 18.6274 5.37258 24 12 24Z"/><path fill="#fff" fill-opacity=".602" d="M12.3735 3V9.65246L17.9961 12.1649L12.3735 3Z"/><path fill="#fff" d="M12.3736 3L6.75 12.1649L12.3736 9.65246V3Z"/><path fill="#fff" fill-opacity=".602" d="M12.3735 16.4761V20.9964L17.9999 13.212L12.3735 16.4761Z"/><path fill="#fff" d="M12.3736 20.9964V16.4753L6.75 13.212L12.3736 20.9964Z"/><path fill="#fff" fill-opacity=".2" d="M12.3735 15.4297L17.9961 12.165L12.3735 9.65399V15.4297Z"/><path fill="#fff" fill-opacity=".602" d="M6.75 12.165L12.3736 15.4297V9.65399L6.75 12.165Z"/></svg>