<svg xmlns="http://www.w3.org/2000/svg" width="80" height="80" fill="none" viewBox="0 0 80 80"><circle cx="40" cy="40" r="39.5" fill="#F5F7FD" stroke="#DFE7FB"/><g clip-path="url(#clip0_6_8431)"><g filter="url(#filter0_i_6_8431)"><path fill="#fff" d="M42.8572 44.2818C46.802 44.2818 50 41.0838 50 37.139C50 33.1941 46.802 29.9961 42.8572 29.9961C38.9123 29.9961 35.7143 33.1941 35.7143 37.139C35.7143 41.0838 38.9123 44.2818 42.8572 44.2818Z"/></g><path stroke="#375BD2" stroke-linecap="round" stroke-linejoin="round" stroke-width="1.5" d="M42.8572 44.2818C46.802 44.2818 50 41.0838 50 37.139C50 33.1941 46.802 29.9961 42.8572 29.9961C38.9123 29.9961 35.7143 33.1941 35.7143 37.139C35.7143 41.0838 38.9123 44.2818 42.8572 44.2818Z"/><g filter="url(#filter1_i_6_8431)"><path fill="#fff" d="M57.1429 27.1391C59.5098 27.1391 61.4286 25.2203 61.4286 22.8533C61.4286 20.4864 59.5098 18.5676 57.1429 18.5676C54.776 18.5676 52.8572 20.4864 52.8572 22.8533C52.8572 25.2203 54.776 27.1391 57.1429 27.1391Z"/></g><path stroke="#375BD2" stroke-linecap="round" stroke-linejoin="round" stroke-width="1.5" d="M57.1429 27.1391C59.5098 27.1391 61.4286 25.2203 61.4286 22.8533C61.4286 20.4864 59.5098 18.5676 57.1429 18.5676C54.776 18.5676 52.8572 20.4864 52.8572 22.8533C52.8572 25.2203 54.776 27.1391 57.1429 27.1391Z"/><g filter="url(#filter2_i_6_8431)"><path fill="#fff" d="M57.1429 51.4247C59.5098 51.4247 61.4286 49.5059 61.4286 47.139C61.4286 44.7721 59.5098 42.8533 57.1429 42.8533C54.776 42.8533 52.8572 44.7721 52.8572 47.139C52.8572 49.5059 54.776 51.4247 57.1429 51.4247Z"/></g><path stroke="#375BD2" stroke-linecap="round" stroke-linejoin="round" stroke-width="1.5" d="M57.1429 51.4247C59.5098 51.4247 61.4286 49.5059 61.4286 47.139C61.4286 44.7721 59.5098 42.8533 57.1429 42.8533C54.776 42.8533 52.8572 44.7721 52.8572 47.139C52.8572 49.5059 54.776 51.4247 57.1429 51.4247Z"/><g filter="url(#filter3_i_6_8431)"><path fill="#fff" d="M42.8572 61.4247C45.2241 61.4247 47.1429 59.5059 47.1429 57.139C47.1429 54.7721 45.2241 52.8533 42.8572 52.8533C40.4903 52.8533 38.5715 54.7721 38.5715 57.139C38.5715 59.5059 40.4903 61.4247 42.8572 61.4247Z"/></g><path stroke="#375BD2" stroke-linecap="round" stroke-linejoin="round" stroke-width="1.5" d="M42.8572 61.4247C45.2241 61.4247 47.1429 59.5059 47.1429 57.139C47.1429 54.7721 45.2241 52.8533 42.8572 52.8533C40.4903 52.8533 38.5715 54.7721 38.5715 57.139C38.5715 59.5059 40.4903 61.4247 42.8572 61.4247Z"/><g filter="url(#filter4_i_6_8431)"><path fill="#fff" d="M22.8572 61.4247C25.2241 61.4247 27.1429 59.5059 27.1429 57.139C27.1429 54.7721 25.2241 52.8533 22.8572 52.8533C20.4903 52.8533 18.5715 54.7721 18.5715 57.139C18.5715 59.5059 20.4903 61.4247 22.8572 61.4247Z"/></g><path stroke="#375BD2" stroke-linecap="round" stroke-linejoin="round" stroke-width="1.5" d="M22.8572 61.4247C25.2241 61.4247 27.1429 59.5059 27.1429 57.139C27.1429 54.7721 25.2241 52.8533 22.8572 52.8533C20.4903 52.8533 18.5715 54.7721 18.5715 57.139C18.5715 59.5059 20.4903 61.4247 22.8572 61.4247Z"/><g filter="url(#filter5_i_6_8431)"><path fill="#fff" d="M24.2857 31.4247C26.6526 31.4247 28.5714 29.5059 28.5714 27.139C28.5714 24.7721 26.6526 22.8533 24.2857 22.8533C21.9188 22.8533 20 24.7721 20 27.139C20 29.5059 21.9188 31.4247 24.2857 31.4247Z"/></g><path stroke="#375BD2" stroke-linecap="round" stroke-linejoin="round" stroke-width="1.5" d="M24.2857 31.4247C26.6526 31.4247 28.5714 29.5059 28.5714 27.139C28.5714 24.7721 26.6526 22.8533 24.2857 22.8533C21.9188 22.8533 20 24.7721 20 27.139C20 29.5059 21.9188 31.4247 24.2857 31.4247Z"/><path stroke="#375BD2" stroke-linecap="round" stroke-linejoin="round" stroke-width="1.5" d="M47.9067 32.0914L54.1162 25.8818"/><path stroke="#375BD2" stroke-linecap="round" stroke-linejoin="round" stroke-width="1.5" d="M49.1315 40.5562L53.4838 44.9085"/><path stroke="#375BD2" stroke-linecap="round" stroke-linejoin="round" stroke-width="1.5" d="M42.8572 44.2819V52.8533"/><path stroke="#375BD2" stroke-linecap="round" stroke-linejoin="round" stroke-width="1.5" d="M37.8115 42.1847L25.8857 54.1104"/><path stroke="#375BD2" stroke-linecap="round" stroke-linejoin="round" stroke-width="1.5" d="M36.1924 34.5695L27.8286 29.5504"/></g><defs><filter id="filter0_i_6_8431" width="15.786" height="15.786" x="34.964" y="29.246" color-interpolation-filters="sRGB" filterUnits="userSpaceOnUse"><feFlood flood-opacity="0" result="BackgroundImageFix"/><feBlend in="SourceGraphic" in2="BackgroundImageFix" mode="normal" result="shape"/><feColorMatrix in="SourceAlpha" result="hardAlpha" type="matrix" values="0 0 0 0 0 0 0 0 0 0 0 0 0 0 0 0 0 0 127 0"/><feOffset dx="-3" dy="1"/><feComposite in2="hardAlpha" k2="-1" k3="1" operator="arithmetic"/><feColorMatrix type="matrix" values="0 0 0 0 0.87451 0 0 0 0 0.905882 0 0 0 0 0.984314 0 0 0 1 0"/><feBlend in2="shape" mode="normal" result="effect1_innerShadow_6_8431"/></filter><filter id="filter1_i_6_8431" width="10.071" height="10.071" x="52.107" y="17.818" color-interpolation-filters="sRGB" filterUnits="userSpaceOnUse"><feFlood flood-opacity="0" result="BackgroundImageFix"/><feBlend in="SourceGraphic" in2="BackgroundImageFix" mode="normal" result="shape"/><feColorMatrix in="SourceAlpha" result="hardAlpha" type="matrix" values="0 0 0 0 0 0 0 0 0 0 0 0 0 0 0 0 0 0 127 0"/><feOffset dx="-3" dy="1"/><feComposite in2="hardAlpha" k2="-1" k3="1" operator="arithmetic"/><feColorMatrix type="matrix" values="0 0 0 0 0.87451 0 0 0 0 0.905882 0 0 0 0 0.984314 0 0 0 1 0"/><feBlend in2="shape" mode="normal" result="effect1_innerShadow_6_8431"/></filter><filter id="filter2_i_6_8431" width="10.071" height="10.071" x="52.107" y="42.103" color-interpolation-filters="sRGB" filterUnits="userSpaceOnUse"><feFlood flood-opacity="0" result="BackgroundImageFix"/><feBlend in="SourceGraphic" in2="BackgroundImageFix" mode="normal" result="shape"/><feColorMatrix in="SourceAlpha" result="hardAlpha" type="matrix" values="0 0 0 0 0 0 0 0 0 0 0 0 0 0 0 0 0 0 127 0"/><feOffset dx="-3" dy="1"/><feComposite in2="hardAlpha" k2="-1" k3="1" operator="arithmetic"/><feColorMatrix type="matrix" values="0 0 0 0 0.87451 0 0 0 0 0.905882 0 0 0 0 0.984314 0 0 0 1 0"/><feBlend in2="shape" mode="normal" result="effect1_innerShadow_6_8431"/></filter><filter id="filter3_i_6_8431" width="10.071" height="10.071" x="37.822" y="52.103" color-interpolation-filters="sRGB" filterUnits="userSpaceOnUse"><feFlood flood-opacity="0" result="BackgroundImageFix"/><feBlend in="SourceGraphic" in2="BackgroundImageFix" mode="normal" result="shape"/><feColorMatrix in="SourceAlpha" result="hardAlpha" type="matrix" values="0 0 0 0 0 0 0 0 0 0 0 0 0 0 0 0 0 0 127 0"/><feOffset dx="-3" dy="1"/><feComposite in2="hardAlpha" k2="-1" k3="1" operator="arithmetic"/><feColorMatrix type="matrix" values="0 0 0 0 0.87451 0 0 0 0 0.905882 0 0 0 0 0.984314 0 0 0 1 0"/><feBlend in2="shape" mode="normal" result="effect1_innerShadow_6_8431"/></filter><filter id="filter4_i_6_8431" width="10.071" height="10.071" x="17.822" y="52.103" color-interpolation-filters="sRGB" filterUnits="userSpaceOnUse"><feFlood flood-opacity="0" result="BackgroundImageFix"/><feBlend in="SourceGraphic" in2="BackgroundImageFix" mode="normal" result="shape"/><feColorMatrix in="SourceAlpha" result="hardAlpha" type="matrix" values="0 0 0 0 0 0 0 0 0 0 0 0 0 0 0 0 0 0 127 0"/><feOffset dx="-3" dy="1"/><feComposite in2="hardAlpha" k2="-1" k3="1" operator="arithmetic"/><feColorMatrix type="matrix" values="0 0 0 0 0.87451 0 0 0 0 0.905882 0 0 0 0 0.984314 0 0 0 1 0"/><feBlend in2="shape" mode="normal" result="effect1_innerShadow_6_8431"/></filter><filter id="filter5_i_6_8431" width="10.071" height="10.071" x="19.25" y="22.103" color-interpolation-filters="sRGB" filterUnits="userSpaceOnUse"><feFlood flood-opacity="0" result="BackgroundImageFix"/><feBlend in="SourceGraphic" in2="BackgroundImageFix" mode="normal" result="shape"/><feColorMatrix in="SourceAlpha" result="hardAlpha" type="matrix" values="0 0 0 0 0 0 0 0 0 0 0 0 0 0 0 0 0 0 127 0"/><feOffset dx="-3" dy="1"/><feComposite in2="hardAlpha" k2="-1" k3="1" operator="arithmetic"/><feColorMatrix type="matrix" values="0 0 0 0 0.87451 0 0 0 0 0.905882 0 0 0 0 0.984314 0 0 0 1 0"/><feBlend in2="shape" mode="normal" result="effect1_innerShadow_6_8431"/></filter><clipPath id="clip0_6_8431"><rect width="45.714" height="45.714" fill="#fff" transform="translate(17.1429 17.1428)"/></clipPath></defs></svg>