<svg xmlns="http://www.w3.org/2000/svg" width="24" height="24" fill="none" viewBox="0 0 24 24"><g clip-path="url(#clip0_482_1489)"><g filter="url(#filter0_i_482_1489)"><path fill="#fff" fill-rule="evenodd" d="M12 23.25C18.2132 23.25 23.25 18.2132 23.25 12C23.25 5.7868 18.2132 0.75 12 0.75C5.7868 0.75 0.75 5.7868 0.75 12C0.75 18.2132 5.7868 23.25 12 23.25Z" clip-rule="evenodd"/></g><path fill-rule="evenodd" stroke="#375BD2" stroke-linecap="round" stroke-linejoin="round" stroke-width="1.5" d="M12 23.25C18.2132 23.25 23.25 18.2132 23.25 12C23.25 5.7868 18.2132 0.75 12 0.75C5.7868 0.75 0.75 5.7868 0.75 12C0.75 18.2132 5.7868 23.25 12 23.25Z" clip-rule="evenodd"/><g filter="url(#filter1_i_482_1489)"><path fill="#fff" fill-rule="evenodd" d="M11.125 15.5C13.5412 15.5 15.5 13.5412 15.5 11.125C15.5 8.70875 13.5412 6.75 11.125 6.75C8.70875 6.75 6.75 8.70875 6.75 11.125C6.75 13.5412 8.70875 15.5 11.125 15.5Z" clip-rule="evenodd"/></g><path fill-rule="evenodd" stroke="#375BD2" stroke-linecap="round" stroke-linejoin="round" stroke-width="1.5" d="M11.125 15.5C13.5412 15.5 15.5 13.5412 15.5 11.125C15.5 8.70875 13.5412 6.75 11.125 6.75C8.70875 6.75 6.75 8.70875 6.75 11.125C6.75 13.5412 8.70875 15.5 11.125 15.5Z" clip-rule="evenodd"/><path stroke="#375BD2" stroke-linecap="round" stroke-linejoin="round" stroke-width="1.5" d="M14.219 14.218L17.25 17.25"/></g><defs><filter id="filter0_i_482_1489" width="24" height="24" x="0" y="0" color-interpolation-filters="sRGB" filterUnits="userSpaceOnUse"><feFlood flood-opacity="0" result="BackgroundImageFix"/><feBlend in="SourceGraphic" in2="BackgroundImageFix" mode="normal" result="shape"/><feColorMatrix in="SourceAlpha" result="hardAlpha" type="matrix" values="0 0 0 0 0 0 0 0 0 0 0 0 0 0 0 0 0 0 127 0"/><feOffset dx="-3" dy="1"/><feComposite in2="hardAlpha" k2="-1" k3="1" operator="arithmetic"/><feColorMatrix type="matrix" values="0 0 0 0 0.87451 0 0 0 0 0.905882 0 0 0 0 0.984314 0 0 0 1 0"/><feBlend in2="shape" mode="normal" result="effect1_innerShadow_482_1489"/></filter><filter id="filter1_i_482_1489" width="10.25" height="10.25" x="6" y="6" color-interpolation-filters="sRGB" filterUnits="userSpaceOnUse"><feFlood flood-opacity="0" result="BackgroundImageFix"/><feBlend in="SourceGraphic" in2="BackgroundImageFix" mode="normal" result="shape"/><feColorMatrix in="SourceAlpha" result="hardAlpha" type="matrix" values="0 0 0 0 0 0 0 0 0 0 0 0 0 0 0 0 0 0 127 0"/><feOffset dx="-3" dy="1"/><feComposite in2="hardAlpha" k2="-1" k3="1" operator="arithmetic"/><feColorMatrix type="matrix" values="0 0 0 0 0.87451 0 0 0 0 0.905882 0 0 0 0 0.984314 0 0 0 1 0"/><feBlend in2="shape" mode="normal" result="effect1_innerShadow_482_1489"/></filter><clipPath id="clip0_482_1489"><rect width="24" height="24" fill="#fff"/></clipPath></defs></svg>