<svg xmlns="http://www.w3.org/2000/svg" width="32" height="32" fill="none" viewBox="0 0 32 32"><rect width="32" height="32" fill="#30BF54" rx="4"/><path fill="#000" d="M7 7C11.9706 7 16 11.0294 16 16C11.0294 16 7 11.9706 7 7Z"/><path fill="#000" d="M25 25C20.0294 25 16 20.9706 16 16C20.9706 16 25 20.0294 25 25Z"/><path fill="#000" d="M16 16C16 13.5147 18.0147 11.5 20.5 11.5C20.5 13.9853 18.4853 16 16 16Z"/><path fill="#000" d="M16 16C16 18.4853 13.9853 20.5 11.5 20.5C11.5 18.0147 13.5147 16 16 16Z"/></svg>